<svg xmlns="http://www.w3.org/2000/svg" viewBox="0 0 96 96" role="img" aria-label="WhatsApp">
  <rect width="96" height="96" rx="18" fill="#e9fff1"/>
  <path fill="#25d366" d="M48 12c-19 0-34 15-34 34 0 6 2 12 5 17l-5 19 20-5c4 2 9 3 14 3 19 0 34-15 34-34S67 12 48 12z"/>
  <path fill="#fff" d="M48 74c-5 0-9-1-13-4l-2-1-11 3 3-10-1-2c-3-4-4-9-4-14 0-15 13-28 28-28s28 13 28 28-13 28-28 28z"/>
  <path fill="#25d366" d="M64 55c-1-1-7-4-8-4s-2 0-3 1l-2 3c-1 1-2 1-3 0-4-2-8-4-11-9-1-1 0-2 1-3l2-2c0-1 0-2-1-3l-3-7c-1-2-2-2-3-2h-3c-1 0-3 1-4 2-2 2-4 5-4 9 0 5 4 11 5 12 1 1 9 14 22 19 10 4 13 2 16 2 3-1 8-4 9-7 1-4 1-6 1-6-1-1-2-1-3-2z"/>
</svg>
